<svg width="223" height="223" viewBox="0 0 223 223" fill="none" xmlns="http://www.w3.org/2000/svg">
<circle cx="111.5" cy="111.5" r="111.5" fill="#3566FF"/>
<path d="M115.348 104.286C119.914 104.286 124.378 102.928 128.174 100.385C131.971 97.8425 134.93 94.2281 136.677 89.9993C138.425 85.7704 138.882 81.1172 137.991 76.6279C137.1 72.1386 134.902 68.015 131.673 64.7784C128.444 61.5418 124.33 59.3377 119.852 58.4447C115.373 57.5517 110.731 58.01 106.513 59.7617C102.294 61.5133 98.6886 64.4796 96.1517 68.2854C93.6149 72.0912 92.2609 76.5656 92.2609 81.1429C92.2609 87.2807 94.6932 93.1672 99.0229 97.5073C103.353 101.847 109.225 104.286 115.348 104.286ZM115.348 73.4286C116.87 73.4286 118.358 73.881 119.623 74.7287C120.889 75.5763 121.875 76.7811 122.458 78.1907C123.04 79.6003 123.193 81.1514 122.896 82.6478C122.599 84.1443 121.866 85.5188 120.789 86.5977C119.713 87.6765 118.342 88.4113 116.849 88.7089C115.356 89.0066 113.809 88.8538 112.403 88.2699C110.997 87.6861 109.795 86.6973 108.949 85.4287C108.104 84.1601 107.652 82.6686 107.652 81.1429C107.652 79.0969 108.463 77.1348 109.906 75.688C111.349 74.2413 113.307 73.4286 115.348 73.4286ZM146.977 103.206C151.479 96.7337 153.893 89.0332 153.893 81.1429C153.893 73.2526 151.479 65.5521 146.977 59.08C149.19 58.3658 151.501 58.0014 153.826 58C159.949 58 165.821 60.4383 170.151 64.7784C174.481 69.1185 176.913 75.005 176.913 81.1429C176.913 87.2807 174.481 93.1672 170.151 97.5073C165.821 101.847 159.949 104.286 153.826 104.286C151.501 104.284 149.19 103.92 146.977 103.206ZM115.348 119.714C69.1739 119.714 69.1739 150.571 69.1739 150.571V166H161.522V150.571C161.522 150.571 161.522 119.714 115.348 119.714ZM84.5652 150.571C84.5652 148.334 87.0278 135.143 115.348 135.143C142.283 135.143 145.669 147.177 146.13 150.571M200 150.571V166H176.913V150.571C176.733 144.837 175.416 139.196 173.037 133.977C170.659 128.759 167.268 124.067 163.061 120.177C200 123.957 200 150.571 200 150.571ZM71.7904 88.24L80.7174 99.1171L44.163 135.76L23 112.617L31.927 103.669L44.163 115.857L71.7904 88.24Z" fill="white"/>
</svg>
